<svg width="22" height="22" viewBox="0 0 22 22" fill="none" xmlns="http://www.w3.org/2000/svg">
<path fill-rule="evenodd" clip-rule="evenodd" d="M12.9713 21.7422C14.0653 20.1244 14.1661 18.3771 13.2737 16.5003C13.0256 17.5072 12.5717 18.1183 11.9119 18.3337C12.5246 16.584 12.0126 14.6938 10.3761 12.6628C10.3408 14.7604 9.83671 16.2884 8.86385 17.2468C7.52365 18.5658 7.53942 20.0544 8.91112 21.7126C3.21698 18.6823 2.41364 14.6182 6.501 9.52024C6.75451 10.7518 7.36884 11.5079 8.34406 11.7886C7.28105 7.2777 8.39949 3.43411 11.6993 0.257812C11.7196 7.30671 13.8811 7.93324 16.6141 11.0797C19.5648 14.8556 17.8308 19.2131 12.9713 21.7422Z" fill="white"/>
</svg>
