<svg width="21" height="21" viewBox="0 0 21 21" fill="none" xmlns="http://www.w3.org/2000/svg">
<g clip-path="url(#clip0_201_2134)">
<path d="M18.6612 1.76667C18.5139 1.61951 18.2752 1.61938 18.1279 1.76667L14.2179 5.67652C14.1652 5.72926 14.1292 5.79645 14.1147 5.8696C14.1001 5.94276 14.1076 6.01859 14.1361 6.0875C14.1647 6.15641 14.213 6.21531 14.275 6.25674C14.3371 6.29818 14.41 6.32028 14.4846 6.32026C14.5341 6.32033 14.5832 6.31061 14.6289 6.29166C14.6747 6.27271 14.7163 6.24491 14.7512 6.20985L18.6612 2.3C18.8085 2.15267 18.8085 1.91392 18.6612 1.76667ZM19.7245 2.81318C19.6538 2.74249 19.5579 2.70279 19.4579 2.70279C19.3578 2.70279 19.2619 2.74249 19.1912 2.81318L15.2813 6.72312C15.2105 6.79385 15.1708 6.88977 15.1708 6.98978C15.1708 7.08979 15.2105 7.1857 15.2812 7.25645C15.3162 7.2915 15.3578 7.31931 15.4035 7.33825C15.4493 7.3572 15.4984 7.36692 15.5479 7.36686C15.5974 7.36692 15.6465 7.3572 15.6923 7.33825C15.738 7.31931 15.7796 7.2915 15.8146 7.25645L19.7245 3.34647C19.7595 3.31145 19.7873 3.26988 19.8063 3.22413C19.8252 3.17838 19.835 3.12935 19.835 3.07983C19.835 3.0303 19.8252 2.98127 19.8063 2.93552C19.7873 2.88977 19.7595 2.8482 19.7245 2.81318Z" fill="black"/>
<path d="M16.036 9.41542L20.8897 4.56171C20.9247 4.5267 20.9525 4.48512 20.9714 4.43937C20.9904 4.39362 21.0001 4.34458 21.0001 4.29505C21.0001 4.24553 20.9904 4.19649 20.9714 4.15073C20.9525 4.10498 20.9247 4.06341 20.8897 4.02839C20.7423 3.88122 20.5036 3.8811 20.3563 4.02839L15.5027 8.88209C14.9047 9.48002 13.9904 9.63691 13.2276 9.2726C13.1537 9.23733 13.0704 9.22703 12.9902 9.24326C12.9101 9.25948 12.8373 9.30135 12.783 9.36255L11.1338 11.2207C11.1331 11.2214 11.1324 11.222 11.1318 11.2227C11.1311 11.2235 11.1306 11.2243 11.1299 11.225L4.00188 19.2557L3.99651 19.262C3.97479 19.2876 3.95205 19.3125 3.92834 19.3363C3.45769 19.8069 2.69193 19.8069 2.22148 19.3363C1.99351 19.1084 1.86796 18.8053 1.86796 18.4829C1.86796 18.1605 1.99351 17.8574 2.22189 17.629C2.24559 17.6054 2.27026 17.5827 2.29584 17.5612C2.29797 17.5594 2.30002 17.5576 2.30207 17.5558L6.75834 13.6005C6.83314 13.5341 6.87849 13.4407 6.88444 13.3409C6.89039 13.2411 6.85643 13.1429 6.79005 13.0681C6.65178 12.9123 6.4134 12.8981 6.2577 13.0364L1.80439 16.9891C1.76424 17.0232 1.72547 17.0589 1.68819 17.0961C1.31778 17.4665 1.11377 17.959 1.11377 18.4829C1.11377 19.0067 1.31774 19.4992 1.68815 19.8696C2.07054 20.2519 2.5727 20.4431 3.07497 20.443C3.57704 20.443 4.07932 20.252 4.46142 19.8698C4.49873 19.8324 4.53453 19.7936 4.56872 19.7534L10.0005 13.6336L15.4324 19.7535C15.4664 19.7936 15.5021 19.8324 15.5394 19.8697C15.9217 20.252 16.4239 20.4431 16.9261 20.4431C17.4283 20.4431 17.9305 20.252 18.3129 19.8696C19.0774 19.105 19.0774 17.8609 18.3131 17.0965C18.2758 17.0592 18.2369 17.0234 18.1967 16.9892L11.9463 11.4414L13.1692 10.0636C14.16 10.4147 15.2811 10.1701 16.036 9.41542ZM17.6989 17.5558L17.7052 17.5612C17.7308 17.5829 17.7557 17.6057 17.7795 17.6294C18.2501 18.1 18.2501 18.8657 17.7796 19.3362C17.3089 19.8068 16.5432 19.8068 16.0724 19.336C16.0468 19.3103 16.0223 19.2835 15.999 19.2556L10.5047 13.0655L11.4455 12.0054L17.6989 17.5558Z" fill="black"/>
<path d="M17.5292 0.668013C17.4585 0.597325 17.3626 0.557617 17.2626 0.557617C17.1625 0.557617 17.0666 0.597325 16.9959 0.668013L12.1423 5.52176C11.3873 6.27661 11.1429 7.39761 11.4939 8.38863L10.0003 9.71434L8.56488 8.44023C9.30722 6.97958 9.03623 5.2061 7.85851 4.02834C6.68882 2.85866 5.334 2.03552 4.0436 1.71063C2.69653 1.37155 1.54161 1.59792 0.791269 2.34822C0.0409293 3.09852 -0.185477 4.2536 0.153681 5.60059C0.478607 6.8909 1.30171 8.24573 2.47147 9.41537C3.6492 10.5932 5.42263 10.8642 6.88336 10.1218L8.30492 11.7234C8.34028 11.7633 8.38373 11.7952 8.43238 11.8171C8.48103 11.8389 8.53378 11.8502 8.58711 11.8501C8.67935 11.8502 8.76841 11.8164 8.8373 11.755L12.1951 8.77467C12.2563 8.72035 12.2981 8.64761 12.3144 8.56742C12.3306 8.48722 12.3203 8.40393 12.285 8.3301C11.9207 7.56717 12.0776 6.65293 12.6755 6.05505L17.5292 1.20134C17.5642 1.16632 17.592 1.12475 17.611 1.079C17.6299 1.03324 17.6397 0.984201 17.6397 0.934676C17.6397 0.885152 17.6299 0.836112 17.611 0.790358C17.592 0.744603 17.5642 0.703031 17.5292 0.668013ZM8.61865 10.9407L7.24594 9.39421C7.18704 9.32784 7.10662 9.28436 7.01883 9.27144C6.93103 9.25852 6.8415 9.27699 6.76597 9.32358C5.55692 10.0691 4.01022 9.88771 3.00468 8.88213C1.9299 7.8074 1.17714 6.57664 0.88499 5.41643C0.613261 4.33702 0.769367 3.43673 1.3246 2.88154C1.87974 2.32628 2.78003 2.17025 3.8594 2.44202C5.01961 2.73413 6.25045 3.48685 7.32514 4.56163C8.33068 5.56712 8.51213 7.11382 7.76655 8.32288C7.71999 8.39841 7.70154 8.48794 7.71446 8.57573C7.72738 8.66351 7.77083 8.74393 7.83718 8.80285L9.43219 10.2185L8.61865 10.9407Z" fill="black"/>
</g>
<defs>
<clipPath id="clip0_201_2134">
<rect width="21" height="21" fill="white"/>
</clipPath>
</defs>
</svg>
